<?xml version="1.0" encoding="utf-8"?>
<!-- Generator: Adobe Illustrator 24.3.0, SVG Export Plug-In . SVG Version: 6.00 Build 0)  -->
<svg version="1.1" id="Layer_1" xmlns="http://www.w3.org/2000/svg" xmlns:xlink="http://www.w3.org/1999/xlink" x="0px" y="0px"
	 viewBox="0 0 726.41 566.98" style="enable-background:new 0 0 726.41 566.98;" xml:space="preserve">
<style type="text/css">
	.st0{fill:#031F3E;}
	.st1{fill:#FFFFFF;}
</style>
<g>
	<path class="st0" d="M492.76,114.83c-14.65,8.75-25.31,22.86-29.72,39.35l-57.62,215.51l-43.67,28.44l-43.67-28.44l-57.62-215.51
		c-4.41-16.49-15.07-30.6-29.72-39.35L49.43,6.6l41.28,140.76c6.13,20.9,19.62,38.86,37.98,50.57l63.23,40.33
		c1.44,0.92,2.49,2.34,2.93,3.99l29.27,108.65l47.74,31.99l-47.23-168.09l-75.7-48.47c-4.93-3.16-8.74-7.79-10.89-13.23
		l-26.15-66.28l95.6,59.31c9.05,5.62,15.63,14.47,18.39,24.76l59.69,222.66l76.17,47.74l76.17-47.74l59.69-222.66
		c2.76-10.29,9.33-19.15,18.39-24.76l95.6-59.31l-26.15,66.28c-2.15,5.44-5.96,10.07-10.89,13.23l-75.7,48.47L451.63,382.9
		l47.74-31.99l29.27-108.65c0.44-1.65,1.49-3.07,2.93-3.99l63.23-40.33c18.36-11.71,31.85-29.68,37.98-50.57L674.06,6.6
		L492.76,114.83z"/>
	<g>
		<rect x="17.58" y="503.64" class="st0" width="11.53" height="55.97"/>
		<polygon class="st0" points="69.25,544.23 54.87,503.64 39.8,503.64 39.8,559.61 51.34,559.61 51.34,544.31 50.18,517.94 
			65.25,559.61 73.17,559.61 88.28,517.9 87.13,544.31 87.13,559.61 98.7,559.61 98.7,503.64 83.55,503.64 		"/>
		<path class="st0" d="M141.7,505.94c-3.19-1.54-6.89-2.31-11.09-2.31h-21.84v55.97h11.53v-19.72h10.11
			c6.64,0,11.83-1.58,15.59-4.75c3.75-3.16,5.63-7.49,5.63-12.97c0-3.61-0.86-6.84-2.58-9.67
			C147.34,509.67,144.89,507.48,141.7,505.94z M137.58,528.39c-1.6,1.43-3.93,2.15-6.98,2.15h-10.3v-17.57h10.57
			c2.85,0.05,5.07,0.92,6.69,2.61c1.61,1.69,2.42,3.91,2.42,6.65C139.99,524.91,139.19,526.96,137.58,528.39z"/>
		<rect x="160.28" y="503.64" class="st0" width="11.53" height="55.97"/>
		<path class="st0" d="M195.77,513.84c1.56-1.19,3.76-1.79,6.57-1.79c2.92,0,5.19,0.71,6.8,2.13c1.62,1.42,2.42,3.42,2.42,5.98
			h11.53c0-3.36-0.86-6.36-2.6-9c-1.73-2.64-4.16-4.68-7.28-6.13c-3.13-1.45-6.69-2.17-10.69-2.17c-3.97,0-7.55,0.67-10.75,2
			c-3.19,1.33-5.64,3.18-7.34,5.55c-1.71,2.37-2.56,5.07-2.56,8.09c0,5.82,3.18,10.44,9.53,13.88c2.33,1.26,5.5,2.53,9.5,3.83
			c4,1.29,6.76,2.52,8.3,3.69c1.54,1.17,2.31,2.84,2.31,5.02c0,2-0.77,3.56-2.31,4.67c-1.54,1.11-3.68,1.67-6.42,1.67
			c-7.38,0-11.07-3.09-11.07-9.26h-11.57c0,3.61,0.93,6.79,2.79,9.53c1.86,2.74,4.56,4.9,8.09,6.48c3.53,1.58,7.46,2.36,11.76,2.36
			c6.2,0,11.13-1.38,14.8-4.13c3.66-2.75,5.5-6.55,5.5-11.4c0-4.36-1.5-8-4.5-10.92c-3-2.92-7.78-5.37-14.34-7.34
			c-3.56-1.08-6.26-2.23-8.09-3.46c-1.83-1.23-2.75-2.75-2.75-4.57C193.42,516.61,194.2,515.04,195.77,513.84z"/>
		<rect x="231.63" y="503.64" class="st0" width="11.53" height="55.97"/>
		<path class="st0" d="M312.08,530.11c1.65-2.55,2.48-5.73,2.48-9.55c0-5.38-1.79-9.55-5.38-12.49c-3.59-2.95-8.69-4.42-15.3-4.42
			h-20.8v55.97h11.53v-20.49h9.19l10.5,20.49h12.38v-0.54l-12.11-22.87C307.92,534.69,310.42,532.66,312.08,530.11z M300.64,527.57
			c-1.59,1.47-3.83,2.21-6.73,2.21h-9.3v-16.8h9.27c3.1,0,5.4,0.76,6.9,2.27c1.5,1.51,2.25,3.59,2.25,6.23
			C303.02,524.06,302.23,526.09,300.64,527.57z"/>
		<polygon class="st0" points="334.85,535.35 356.99,535.35 356.99,526.32 334.85,526.32 334.85,512.98 360.76,512.98 
			360.76,503.64 323.32,503.64 323.32,559.61 360.84,559.61 360.84,550.35 334.85,550.35 		"/>
		<path class="st0" d="M380.87,513.84c1.56-1.19,3.76-1.79,6.57-1.79c2.92,0,5.19,0.71,6.8,2.13c1.62,1.42,2.42,3.42,2.42,5.98
			h11.53c0-3.36-0.86-6.36-2.6-9c-1.73-2.64-4.16-4.68-7.28-6.13c-3.13-1.45-6.69-2.17-10.69-2.17c-3.97,0-7.55,0.67-10.75,2
			c-3.19,1.33-5.64,3.18-7.34,5.55c-1.71,2.37-2.56,5.07-2.56,8.09c0,5.82,3.18,10.44,9.53,13.88c2.33,1.26,5.5,2.53,9.5,3.83
			c4,1.29,6.76,2.52,8.3,3.69c1.54,1.17,2.31,2.84,2.31,5.02c0,2-0.77,3.56-2.31,4.67c-1.54,1.11-3.68,1.67-6.42,1.67
			c-7.38,0-11.07-3.09-11.07-9.26h-11.57c0,3.61,0.93,6.79,2.79,9.53c1.86,2.74,4.56,4.9,8.09,6.48c3.53,1.58,7.46,2.36,11.76,2.36
			c6.2,0,11.13-1.38,14.8-4.13c3.66-2.75,5.5-6.55,5.5-11.4c0-4.36-1.5-8-4.5-10.92c-3-2.92-7.78-5.37-14.34-7.34
			c-3.56-1.08-6.26-2.23-8.09-3.46c-1.83-1.23-2.75-2.75-2.75-4.57C378.53,516.61,379.31,515.04,380.87,513.84z"/>
		<path class="st0" d="M450.58,506.23c-3.63-2.24-7.77-3.36-12.43-3.36c-4.67,0-8.81,1.12-12.44,3.36
			c-3.63,2.24-6.43,5.46-8.42,9.65c-1.99,4.19-2.98,9.04-2.98,14.55v2.77c0.03,5.38,1.04,10.14,3.04,14.28
			c2,4.14,4.82,7.32,8.46,9.55c3.64,2.23,7.78,3.34,12.42,3.34c4.69,0,8.85-1.13,12.48-3.38c3.63-2.26,6.41-5.46,8.36-9.61
			c1.95-4.15,2.92-8.98,2.92-14.49v-2.5c0-5.48-0.99-10.32-2.98-14.51C457.02,511.69,454.21,508.47,450.58,506.23z M450.3,533.08
			c-0.03,5.82-1.08,10.25-3.15,13.28c-2.08,3.04-5.05,4.56-8.92,4.56c-3.95,0-6.97-1.58-9.07-4.73c-2.1-3.15-3.15-7.59-3.15-13.3
			v-2.73c0.02-5.82,1.09-10.23,3.19-13.24c2.1-3.01,5.09-4.52,8.96-4.52c3.89,0,6.89,1.53,9,4.57c2.1,3.05,3.15,7.51,3.15,13.38
			V533.08z"/>
		<path class="st0" d="M501.16,540.89c-0.1,6.82-3.39,10.23-9.88,10.23c-3.1,0-5.53-0.84-7.28-2.52c-1.76-1.68-2.63-4.35-2.63-8.02
			v-36.94h-11.53v37.29c0.08,6.05,2.04,10.8,5.88,14.26c3.84,3.46,9.03,5.19,15.57,5.19c6.64,0,11.87-1.78,15.7-5.34
			c3.83-3.56,5.75-8.41,5.75-14.53v-36.87h-11.57V540.89z"/>
		<path class="st0" d="M561.19,530.11c1.65-2.55,2.48-5.73,2.48-9.55c0-5.38-1.79-9.55-5.38-12.49c-3.59-2.95-8.69-4.42-15.3-4.42
			h-20.8v55.97h11.53v-20.49h9.19l10.5,20.49h12.38v-0.54l-12.11-22.87C557.03,534.69,559.53,532.66,561.19,530.11z M549.75,527.57
			c-1.59,1.47-3.83,2.21-6.73,2.21h-9.3v-16.8h9.27c3.1,0,5.4,0.76,6.9,2.27c1.5,1.51,2.25,3.59,2.25,6.23
			C552.13,524.06,551.34,526.09,549.75,527.57z"/>
		<path class="st0" d="M585.37,516.46c1.91-2.75,4.79-4.13,8.63-4.13c3.54,0,6.17,0.81,7.9,2.44c1.73,1.63,2.74,4.25,3.02,7.86
			h11.53c-0.61-6.25-2.9-11.11-6.84-14.57c-3.95-3.46-9.15-5.19-15.61-5.19c-4.66,0-8.76,1.09-12.28,3.29s-6.23,5.34-8.13,9.44
			c-1.9,4.1-2.85,8.84-2.85,14.22v3.42c0,8.43,2.06,15.06,6.17,19.89c4.11,4.83,9.76,7.25,16.93,7.25c6.56,0,11.85-1.73,15.86-5.19
			c4.01-3.46,6.23-8.2,6.67-14.22h-11.53c-0.26,3.41-1.26,5.93-3.02,7.55c-1.76,1.63-4.42,2.44-7.98,2.44
			c-3.95,0-6.84-1.4-8.67-4.19c-1.83-2.79-2.75-7.21-2.75-13.26v-4.23C582.48,523.49,583.46,519.21,585.37,516.46z"/>
		<polygon class="st0" points="635.48,535.35 657.62,535.35 657.62,526.32 635.48,526.32 635.48,512.98 661.39,512.98 
			661.39,503.64 623.94,503.64 623.94,559.61 661.46,559.61 661.46,550.35 635.48,550.35 		"/>
		<path class="st0" d="M689.99,526.59c-3.56-1.08-6.26-2.23-8.09-3.46c-1.83-1.23-2.75-2.75-2.75-4.57c0-1.95,0.78-3.52,2.34-4.71
			c1.56-1.19,3.76-1.79,6.57-1.79c2.92,0,5.19,0.71,6.8,2.13c1.62,1.42,2.42,3.42,2.42,5.98h11.53c0-3.36-0.86-6.36-2.6-9
			c-1.73-2.64-4.16-4.68-7.28-6.13c-3.13-1.45-6.69-2.17-10.69-2.17c-3.97,0-7.55,0.67-10.75,2c-3.19,1.33-5.64,3.18-7.34,5.55
			c-1.71,2.37-2.56,5.07-2.56,8.09c0,5.82,3.18,10.44,9.53,13.88c2.33,1.26,5.5,2.53,9.5,3.83c4,1.29,6.76,2.52,8.3,3.69
			c1.54,1.17,2.31,2.84,2.31,5.02c0,2-0.77,3.56-2.31,4.67c-1.54,1.11-3.68,1.67-6.42,1.67c-7.38,0-11.07-3.09-11.07-9.26h-11.57
			c0,3.61,0.93,6.79,2.79,9.53c1.86,2.74,4.56,4.9,8.09,6.48c3.53,1.58,7.46,2.36,11.76,2.36c6.2,0,11.13-1.38,14.8-4.13
			c3.66-2.75,5.5-6.55,5.5-11.4c0-4.36-1.5-8-4.5-10.92C701.33,531.01,696.55,528.56,689.99,526.59z"/>
	</g>
</g>
</svg>
